<?xml version="1.0" encoding="UTF-8"?>
<svg xmlns="http://www.w3.org/2000/svg" width="53" height="80" viewbox="0 0 53 80" preserveaspectratio="xMidYMid meet">
<title>easyGeocoder marker</title>
<g transform="translate(-22.23537,-8.9649013)">
<rect style="fill:#000000;stroke:none;stroke-width:1.80242062" width="27.912584" height="28.161806" x="34.654465" y="21.547859" />
<path style="fill:#12dd00;stroke:#229f2c;stroke-width:2.75297141" d="m 48.73537,10.341387 c -13.893189,0 -25.123514,11.318426 -25.123514,25.32061 0,4.434023 1.157766,8.63468 3.241745,12.368594 l 1.041987,1.750272 20.839782,36.405672 20.9795,-36.714667 c 0.49003,-0.818384 0.527077,-0.915468 0.902269,-1.557963 2.083979,-3.617228 3.241745,-7.817885 3.241745,-12.368594 0,-13.885498 -11.230325,-25.203924 -25.123514,-25.203924 z m 0,12.601961 c 6.946593,0 12.503869,5.717556 12.503869,12.601963 0,7.001092 -5.557276,12.718652 -12.503869,12.718652 -6.946593,0 -12.503869,-5.71756 -12.503869,-12.601966 0,-7.001093 5.557276,-12.718649 12.503869,-12.718649 z" />
</g>
</svg>

