<svg xmlns="http://www.w3.org/2000/svg" xmlns:xlink="http://www.w3.org/1999/xlink" version="1.1" enable-background="new 0 0 1000 1000" xml:space="preserve" width="360" height="434" style=""><rect id="backgroundrect" width="100%" height="100%" x="0" y="0" fill="none" stroke="none"/>

<g class="currentLayer" style=""><title>Layer 1</title><path d="M169.9031384191331,433.42291527539743 c-1.3645261721888202,-0.1688990050266297 -5.960356993176569,-0.764490233278428 -10.218389804111064,-1.2756319590169107 c-4.173583308421179,-0.5111417257384833 -12.2585119964064,-2.1290164054672465 -17.881070979529714,-3.489097866997474 c-64.02605703706823,-16.089852584115725 -115.79360207773006,-69.55972180701963 -132.82128861080946,-137.3326699292839 c-15.07201384329735,-59.85247372864704 -3.3201988619708422,-113.49568666723617 37.71781464884144,-172.41032644691958 c24.774817211011342,-35.504348740860884 65.98617443750885,-75.60452830270951 110.25993730777863,-107.4508801715463 c14.814220625098812,-10.55618781416432 18.476662207781505,-12.600754717118251 23.75697847019297,-13.196345945370048 c7.2359889521934795,-0.764490233278428 10.645082027336231,0.764490233278428 24.85926671352465,10.898430534876173 C256.1527487491787,45.26188874959348 298.6352932240347,87.6644284325946 325.71247055619824,129.1246894559735 C357.043235988638,176.97644440641267 368.4528082492527,222.01914222061947 361.47016780459927,270.1242456785985 c-12.089612991379768,83.26720947812817 -73.56440611041415,148.74224218989852 -151.97799154935606,161.68523962772863 C201.74504557731103,433.0851172653441 175.26790418405778,434.1918502193344 169.9031384191331,433.42291527539743 zM201.06500484654612,321.6339975010619 C248.91231508632666,309.37104079399694 274.202718733735,252.15872519655574 252.57475666900928,205.24480419508 c-9.876147083399207,-21.201269841500547 -27.58387434724369,-36.77998069987779 -49.638528635194575,-43.509272636991376 c-6.640397723941681,-1.9601174004406188 -8.853863631922241,-2.2134659079805608 -19.836743669311733,-2.2134659079805608 c-10.982880037389492,0 -13.196345945370048,0.2533485075399439 -19.836743669311733,2.2134659079805608 c-13.96528088930707,4.258032810934493 -24.26367548527286,10.640637316677635 -34.22871678184398,21.11682033898724 c-10.387288809137692,10.982880037389492 -16.689888523026113,22.308002795490832 -20.605678613248752,37.29112242561627 c-1.8712231872687064,7.067089947166853 -2.2134659079805608,9.960596585912521 -2.2134659079805608,21.37016884652718 c0,11.409572260614658 0.34224272071185496,14.303078899360331 2.1290164054672465,21.285719344013863 c8.600515124382298,32.18414987889004 33.37533233539363,55.59888562837116 64.11050653958155,60.452509667557436 C179.694836000019,324.35860513478093 193.48677317364087,323.58967019084395 201.06500484654612,321.6339975010619 z" id="svg_1" class="" transform="rotate(-180 183.0662078857422,215.8878173828125) " fill="#6b1717" fill-opacity="1" stroke="none"/></g></svg>