<?xml version="1.0" encoding="UTF-8"?>
<svg width="32px" height="32px" viewBox="0 0 32 32" version="1.1" xmlns="http://www.w3.org/2000/svg" xmlns:xlink="http://www.w3.org/1999/xlink">
    <!-- Generator: Sketch 50.2 (55047) - http://www.bohemiancoding.com/sketch -->
    <title>32 x 32</title>
    <desc>Created with Sketch.</desc>
    <defs>
        <linearGradient x1="3.81843817e-05%" y1="18.8888866%" x2="33.6689627%" y2="94.5955439%" id="linearGradient-1">
            <stop stop-color="#1B4AEE" offset="0%"></stop>
            <stop stop-color="#4594FF" offset="100%"></stop>
        </linearGradient>
    </defs>
    <g id="32-x-32" stroke="none" stroke-width="1" fill="none" fill-rule="evenodd">
        <path d="M15.9997419,3.00001421 C18.1638034,2.99638697 20.2840934,3.68723566 22.1116399,4.9916497 C26.8613637,8.37977077 27.2112501,15.3775676 23.4266711,20.4939207 C21.2667811,23.4127266 18.8895192,26.1189034 16.3208854,28.5831941 C16.2218567,28.6763943 16.0985421,28.7199372 15.9771705,28.7137658 C15.9255132,28.7113086 15.8741988,28.6995372 15.8253416,28.6789086 C15.7731701,28.6571371 15.7235128,28.6253656 15.6788842,28.5831941 C13.1099647,26.1194749 10.7327028,23.4135837 8.5730985,20.4950065 C4.7893195,15.3775676 5.1381202,8.37977077 9.88812971,4.9916497 C11.7156762,3.68723566 13.8356805,2.99638697 15.9997419,3.00001421 Z M12.4229919,17.4855147 C12.4849349,17.4130003 12.5611065,17.3599716 12.6439638,17.3267715 C12.835107,17.2503142 13.0613932,17.2799143 13.2288221,17.4230574 C14.795511,18.7637458 17.2045444,18.7637458 18.7712332,17.4230574 C19.0111765,17.2179713 19.3719773,17.2458571 19.5770634,17.4855147 C19.7820924,17.7255152 19.7542066,18.0862588 19.514549,18.2913449 C17.5198593,19.9980912 14.480196,19.9980912 12.4855063,18.2913449 C12.3325917,18.1604875 12.2659059,17.9662585 12.2907631,17.7804296 C12.3005345,17.7084866 12.3239632,17.6378579 12.3616204,17.5726006 C12.3789347,17.5422005 12.3995633,17.5131719 12.4229919,17.4855147 Z M13.4285939,9.85715658 C13.4285939,9.5416131 13.1727077,9.28572687 12.8571642,9.28572687 C12.5415636,9.28572687 12.2857345,9.5416131 12.2857345,9.85715658 L12.2857345,11.5714457 L10.5714454,11.5714457 C10.3817307,11.5714457 10.2137304,11.6637888 10.109673,11.8061319 C10.0407586,11.9007035 10.0000156,12.0170466 10.0000156,12.1428754 C10.0000156,12.4584761 10.2558447,12.7143052 10.5714454,12.7143052 L12.2857345,12.7143052 L12.2857345,14.4285943 C12.2857345,14.6233376 12.3831061,14.7955093 12.5320779,14.8987667 C12.624478,14.9626525 12.736364,15.000024 12.8571642,15.000024 C12.9721359,15.000024 13.0789932,14.966024 13.1685363,14.907681 C13.3250509,14.8058522 13.4285939,14.6292233 13.4285939,14.4285943 L13.4285939,12.7143052 L15.1428831,12.7143052 C15.3490549,12.7143052 15.5298553,12.6052192 15.6303126,12.4414475 C15.683627,12.3543616 15.7143128,12.2522471 15.7143128,12.1428754 C15.7143128,11.827332 15.4584266,11.5714457 15.1428831,11.5714457 L13.4285939,11.5714457 L13.4285939,9.85715658 Z M19.7143208,13.8571646 C20.6610084,13.8571646 21.42861,13.0896202 21.42861,12.1428754 C21.42861,11.1961878 20.6610084,10.4285863 19.7143208,10.4285863 C18.7676332,10.4285863 18.0000317,11.1961878 18.0000317,12.1428754 C18.0000317,13.0896202 18.7676332,13.8571646 19.7143208,13.8571646 Z" id="Shape" fill="url(#linearGradient-1)"></path>
    </g>
</svg>