<svg width="101" height="75" viewBox="0 0 101 75" fill="none" xmlns="http://www.w3.org/2000/svg">
<path fill-rule="evenodd" clip-rule="evenodd" d="M50.4995 2.48678e-05C54.2866 -0.00632279 57.9971 1.20266 61.1953 3.48538C69.5073 9.41458 70.1196 21.6607 63.4966 30.6143C59.7168 35.7222 55.5566 40.458 51.0615 44.7705C50.8882 44.9336 50.6724 45.0098 50.46 44.999C50.3696 44.9947 50.2798 44.9741 50.1943 44.938C50.103 44.8999 50.0161 44.8443 49.938 44.7705C45.4424 40.459 41.2822 35.7237 37.5029 30.6162C30.8813 21.6607 31.4917 9.41458 39.8042 3.48538C43.0024 1.20266 46.7124 -0.00632279 50.4995 2.48678e-05ZM44.2402 25.3496C44.3486 25.2227 44.4819 25.1299 44.6269 25.0718C44.9614 24.938 45.3574 24.9898 45.6504 25.2403C48.3921 27.5865 52.6079 27.5865 55.3496 25.2403C55.7695 24.8814 56.4009 24.9302 56.7598 25.3496C57.1186 25.7696 57.0698 26.4009 56.6504 26.7598C53.1597 29.7466 47.8403 29.7466 44.3496 26.7598C44.082 26.5308 43.9653 26.1909 44.0088 25.8657C44.0259 25.7398 44.0669 25.6162 44.1328 25.502C44.1631 25.4488 44.1992 25.398 44.2402 25.3496ZM46 12C46 11.4478 45.5522 11 45 11C44.4477 11 44 11.4478 44 12V15H41C40.668 15 40.374 15.1616 40.1919 15.4107C40.0713 15.5762 40 15.7798 40 16C40 16.5523 40.4477 17 41 17H44V20C44 20.3408 44.1704 20.6421 44.4311 20.8228C44.5928 20.9346 44.7886 21 45 21C45.2012 21 45.3882 20.9405 45.5449 20.8384C45.8188 20.6602 46 20.3511 46 20V17H49C49.3608 17 49.6772 16.8091 49.853 16.5225C49.9463 16.3701 50 16.1914 50 16C50 15.4478 49.5522 15 49 15H46V12ZM57 19C58.6567 19 60 17.6568 60 16C60 14.3433 58.6567 13 57 13C55.3433 13 54 14.3433 54 16C54 17.6568 55.3433 19 57 19Z" fill="url(#paint0_linear)"/>
<path d="M11.946 64.38C11.946 65.8613 11.4033 67.0273 10.318 67.878C9.23267 68.714 7.83933 69.132 6.138 69.132C4.89133 69.132 3.81333 68.978 2.904 68.67C1.99467 68.3473 1.166 67.812 0.418 67.064L2.398 65.084C3.278 65.964 4.532 66.404 6.16 66.404C7.06933 66.404 7.75867 66.2353 8.228 65.898C8.712 65.5607 8.954 65.0767 8.954 64.446C8.954 63.9033 8.79267 63.4707 8.47 63.148C8.19133 62.884 7.722 62.708 7.062 62.62L5.192 62.334C3.872 62.1433 2.86 61.7107 2.156 61.036C1.408 60.3027 1.034 59.276 1.034 57.956C1.034 56.5333 1.52533 55.3893 2.508 54.524C3.49067 53.644 4.818 53.204 6.49 53.204C8.602 53.204 10.2887 53.8127 11.55 55.03L9.614 56.944C8.88067 56.2253 7.81 55.866 6.402 55.866C5.62467 55.866 5.03067 56.0567 4.62 56.438C4.20933 56.8047 4.004 57.274 4.004 57.846C4.004 58.3153 4.15067 58.6893 4.444 58.968C4.78133 59.276 5.258 59.474 5.874 59.562L7.744 59.848C9.07867 60.0387 10.076 60.4493 10.736 61.08C11.5427 61.828 11.946 62.928 11.946 64.38ZM23.69 69H20.83V62.07C20.83 61.3513 20.6394 60.8233 20.258 60.486C19.8914 60.1487 19.4514 59.98 18.938 59.98C18.41 59.98 17.9554 60.1487 17.574 60.486C17.2074 60.8233 17.024 61.3513 17.024 62.07V69H14.164V53.336H17.024V58.594C17.7427 57.802 18.674 57.406 19.818 57.406C20.9474 57.406 21.8494 57.7433 22.524 58.418C23.3014 59.1953 23.69 60.2807 23.69 61.674V69ZM42.5274 69H39.6674V62.07C39.6674 61.3513 39.4767 60.8233 39.0954 60.486C38.7287 60.1487 38.2887 59.98 37.7754 59.98C37.262 59.98 36.8147 60.1487 36.4334 60.486C36.052 60.8087 35.8614 61.3147 35.8614 62.004V69H33.0014V62.07C33.0014 61.3513 32.8107 60.8233 32.4294 60.486C32.0627 60.1487 31.6227 59.98 31.1094 59.98C30.5814 59.98 30.1267 60.1487 29.7454 60.486C29.3787 60.8233 29.1954 61.3513 29.1954 62.07V69H26.3354V57.538H29.1294V58.594C29.892 57.802 30.8454 57.406 31.9894 57.406C33.3094 57.406 34.3214 57.89 35.0254 58.858C35.9494 57.89 37.0934 57.406 38.4574 57.406C39.66 57.406 40.5987 57.7433 41.2734 58.418C42.1094 59.254 42.5274 60.3393 42.5274 61.674V69ZM53.8349 69H51.0409V68.01C50.6449 68.406 50.2342 68.692 49.8089 68.868C49.3982 69.0293 48.8702 69.11 48.2249 69.11C46.9489 69.11 45.9735 68.7727 45.2989 68.098C44.6682 67.438 44.3529 66.58 44.3529 65.524C44.3529 64.556 44.6902 63.764 45.3649 63.148C46.0395 62.5173 47.0222 62.202 48.3129 62.202H50.9749V61.63C50.9749 60.9993 50.8062 60.5447 50.4689 60.266C50.1315 59.9727 49.5889 59.826 48.8409 59.826C47.9462 59.826 47.2129 60.156 46.6409 60.816L44.8369 59.034C45.3942 58.418 45.9735 57.9927 46.5749 57.758C47.1909 57.5233 47.9829 57.406 48.9509 57.406C52.2069 57.406 53.8349 58.7553 53.8349 61.454V69ZM50.9749 64.776V64.16H48.7969C47.6675 64.16 47.1029 64.6 47.1029 65.48C47.1029 66.3453 47.6822 66.778 48.8409 66.778C49.5889 66.778 50.1535 66.5947 50.5349 66.228C50.8282 65.9787 50.9749 65.4947 50.9749 64.776ZM66.0708 63.258C66.0708 64.446 65.9975 65.4213 65.8508 66.184C65.7041 66.9467 65.3815 67.5847 64.8828 68.098C64.2228 68.7873 63.2988 69.132 62.1108 69.132C60.9228 69.132 59.9988 68.7507 59.3388 67.988V73.202H56.4788V57.538H59.2508V58.616C59.9695 57.8093 60.9228 57.406 62.1108 57.406C63.2988 57.406 64.2228 57.7507 64.8828 58.44C65.3815 58.9533 65.7041 59.5913 65.8508 60.354C65.9975 61.1167 66.0708 62.0847 66.0708 63.258ZM63.1448 64.578C63.1888 64.226 63.2108 63.786 63.2108 63.258C63.2108 62.73 63.1888 62.2973 63.1448 61.96C63.1008 61.608 63.0128 61.2707 62.8808 60.948C62.7635 60.6253 62.5655 60.3833 62.2868 60.222C62.0228 60.0607 61.6855 59.98 61.2748 59.98C60.8641 59.98 60.5195 60.0607 60.2408 60.222C59.9768 60.3833 59.7788 60.6253 59.6468 60.948C59.5295 61.2707 59.4488 61.608 59.4048 61.96C59.3608 62.2973 59.3388 62.73 59.3388 63.258C59.3388 63.786 59.3608 64.226 59.4048 64.578C59.4488 64.9153 59.5295 65.2527 59.6468 65.59C59.7788 65.9127 59.9768 66.1547 60.2408 66.316C60.5195 66.4773 60.8641 66.558 61.2748 66.558C61.6855 66.558 62.0228 66.4773 62.2868 66.316C62.5655 66.1547 62.7635 65.9127 62.8808 65.59C63.0128 65.2527 63.1008 64.9153 63.1448 64.578ZM77.9414 63.258C77.9414 64.446 77.868 65.4213 77.7214 66.184C77.5747 66.9467 77.252 67.5847 76.7534 68.098C76.0934 68.7873 75.1694 69.132 73.9814 69.132C72.7934 69.132 71.8694 68.7507 71.2094 67.988V73.202H68.3494V57.538H71.1214V58.616C71.84 57.8093 72.7934 57.406 73.9814 57.406C75.1694 57.406 76.0934 57.7507 76.7534 58.44C77.252 58.9533 77.5747 59.5913 77.7214 60.354C77.868 61.1167 77.9414 62.0847 77.9414 63.258ZM75.0154 64.578C75.0594 64.226 75.0814 63.786 75.0814 63.258C75.0814 62.73 75.0594 62.2973 75.0154 61.96C74.9714 61.608 74.8834 61.2707 74.7514 60.948C74.634 60.6253 74.436 60.3833 74.1574 60.222C73.8934 60.0607 73.556 59.98 73.1454 59.98C72.7347 59.98 72.39 60.0607 72.1114 60.222C71.8474 60.3833 71.6494 60.6253 71.5174 60.948C71.4 61.2707 71.3194 61.608 71.2754 61.96C71.2314 62.2973 71.2094 62.73 71.2094 63.258C71.2094 63.786 71.2314 64.226 71.2754 64.578C71.3194 64.9153 71.4 65.2527 71.5174 65.59C71.6494 65.9127 71.8474 66.1547 72.1114 66.316C72.39 66.4773 72.7347 66.558 73.1454 66.558C73.556 66.558 73.8934 66.4773 74.1574 66.316C74.436 66.1547 74.634 65.9127 74.7514 65.59C74.8834 65.2527 74.9714 64.9153 75.0154 64.578ZM89.6359 64.16H82.4639C82.4639 64.9227 82.6839 65.5387 83.1239 66.008C83.5639 66.4773 84.1799 66.712 84.9719 66.712C85.5586 66.712 86.0352 66.6313 86.4019 66.47C86.7832 66.294 87.1719 66.0153 87.5679 65.634L89.3059 67.328C88.6899 67.9587 88.0519 68.4207 87.3919 68.714C86.7466 68.9927 85.9326 69.132 84.9499 69.132C84.2166 69.132 83.5492 69.044 82.9479 68.868C82.3612 68.6773 81.8112 68.3693 81.2979 67.944C80.7846 67.5187 80.3812 66.91 80.0879 66.118C79.7946 65.326 79.6479 64.3727 79.6479 63.258C79.6479 61.4247 80.1026 59.9947 81.0119 58.968C81.9212 57.9267 83.1312 57.406 84.6419 57.406C86.2112 57.406 87.4359 57.9193 88.3159 58.946C89.1959 59.958 89.6359 61.2927 89.6359 62.95V64.16ZM86.8199 62.202C86.8052 61.7033 86.7172 61.2927 86.5559 60.97C86.2039 60.178 85.5659 59.782 84.6419 59.782C83.7179 59.782 83.0799 60.178 82.7279 60.97C82.5666 61.2927 82.4786 61.7033 82.4639 62.202H86.8199ZM100.215 58.484L98.0586 60.662C97.604 60.2073 97.098 59.98 96.5406 59.98C96.0566 59.98 95.624 60.1633 95.2426 60.53C94.876 60.8967 94.6926 61.4173 94.6926 62.092V69H91.8326V57.538H94.6266V58.638C94.92 58.286 95.3233 57.9927 95.8366 57.758C96.3646 57.5233 96.922 57.406 97.5086 57.406C98.594 57.406 99.496 57.7653 100.215 58.484Z" fill="#2F80ED"/>
<defs>
<linearGradient id="paint0_linear" x1="33" y1="8.5" x2="44.7841" y2="42.568" gradientUnits="userSpaceOnUse">
<stop stop-color="#1B4AEE"/>
<stop offset="1" stop-color="#4594FF"/>
</linearGradient>
</defs>
</svg>
